<svg viewBox="0 0 453.97 191.56" xmlns="http://www.w3.org/2000/svg" xmlns:xlink="http://www.w3.org/1999/xlink"><clipPath id="a" transform="translate(-56.8 -39.83)"><path d="m56.8 39.83h453.97v191.56h-453.97z"/></clipPath><g clip-path="url(#a)"><g fill="#0056a2"><path d="m103.75 122.72 4.1-10.23h62.35a5.51 5.51 0 0 1 5.39 5.1c.18 2.81-2.76 5.08-5.56 5.09h-66.28m92.12-5.15c1.31-14-9-25.36-22.94-25.34s-59.53 0-59.53 0h-20.27l-30 74.84h22.87l9.64-24.03h72.5c14 0 26.41-11.37 27.73-25.37" transform="translate(-56.8 -39.83)"/><path d="m326.79 72.83 7.8-20.53h-26.95-20.54-35.83l-8.23 20.53h33.85l-22.01 54.95h22.52l22.01-54.95z"/><path d="m156.78 103.13h65.87l8.11-20.24h-65.87l4.09-10.23h65.87l8.11-20.25h-68.43v.01h-20.23l-29.98 74.83h22.79z"/></g><path d="m510.77 135.61c0-52.89-96.4-95.78-215.33-95.78q-6.6 0-13.11.19c106.78 3 191.39 44.65 191.39 95.59s-84.61 92.59-191.39 95.6q6.51.18 13.11.18c118.93 0 215.33-42.88 215.33-95.78" fill="#db4133" transform="translate(-56.8 -39.83)"/><path d="m462.71 139.81c0-47.88-90.15-86.69-201.35-86.69-66 0-124.49 13.65-161.22 34.75 34.88-17.41 87-28.46 145.14-28.46 105 0 190.16 36 190.16 80.4s-85.14 80.4-190.16 80.4c-58.19 0-110.26-11.05-145.14-28.46 36.73 21.1 95.27 34.75 161.22 34.75 111.2 0 201.35-38.81 201.35-86.69" fill="#0056a2" transform="translate(-56.8 -39.83)"/><path d="m331.63 175.28.74-1.95h-8l-.73 1.95h2.93l-2.87 7.72h2.12l2.88-7.69zm-11.63 1.37a2.18 2.18 0 0 1 -2.1 1.35h-2.15l1-2.77h2.11c1 0 1.49.47 1.15 1.38zm.07 6.32-1.07-3.44a5 5 0 0 0 3.19-3c.74-2-.18-3.18-2.45-3.18h-4.41l-3.56 9.65h2.12l1.16-3.09h1.66l.91 3.09zm-10.36-4.79a4.62 4.62 0 0 1 -4 3c-1.71 0-2.4-1.38-1.78-3a4.62 4.62 0 0 1 4-3c1.7 0 2.4 1.38 1.78 3zm2.23 0c1-2.74-.28-5-3.25-5a8 8 0 0 0 -7 5c-1 2.74.27 4.95 3.25 4.95a8 8 0 0 0 7-5m-12.74-1.42a2.33 2.33 0 0 1 -2.22 1.46h-1.68l1.1-2.95h1.64c1.06 0 1.53.51 1.18 1.46zm2.17 0c.74-2-.14-3.33-2.44-3.33h-3.93l-3.59 9.62h2.13l1.08-2.89h1.61a5.41 5.41 0 0 0 5.17-3.39m-10.49 3.43c.63-1.68-.2-2.38-2-2.89-1.51-.43-1.84-.64-1.6-1.27a1.57 1.57 0 0 1 1.55-.84 3.12 3.12 0 0 1 2.15.95l1.7-1.59a3.9 3.9 0 0 0 -3.12-1.23 4.73 4.73 0 0 0 -4.46 2.91c-.72 1.92.33 2.46 2.09 2.95 1.45.41 1.68.69 1.48 1.23a1.71 1.71 0 0 1 -1.73.91 3 3 0 0 1 -2.44-1.17l-1.82 1.5a4.21 4.21 0 0 0 3.51 1.55 4.79 4.79 0 0 0 4.66-3m-10.04 2.84 3.61-9.64h-2.09l-2.23 5.93-2.29-5.93h-1.95l-3.62 9.64h2.09l2.3-6.13 2.34 6.13zm-12.12-4h-2.57l2.46-3.12zm2.34 4-.49-9.71h-2l-7.73 9.71h2.16l1.69-2.16h4.08l.07 2.16zm-10.81-6.32a2.19 2.19 0 0 1 -2.14 1.36h-2.11l1-2.77h2.11c1 0 1.49.47 1.15 1.38zm.07 6.32-1.07-3.44a5 5 0 0 0 3.19-3c.74-2-.17-3.18-2.44-3.18h-4.4l-3.6 9.62h2.12l1.16-3.09h1.67l.91 3.09zm-6.8-7.69.73-1.95h-8l-.73 1.95h2.93l-2.87 7.69h2.12l2.88-7.69zm-11.47-1.95h-2.41l-3.8 3.87-.84-3.87h-2.48l1.51 5.84-1.42 3.8h2.12l1.44-3.84zm-11.69 9.64.73-1.93h-4.81l2.89-7.71h-2.12l-3.61 9.64zm-9-4.79a4.36 4.36 0 0 1 -4 2.87h-1.64l2.18-5.81h1.64c1.73 0 2.45 1.2 1.81 2.91zm2.23 0c1-2.71-.29-4.79-3.32-4.79h-3.76l-3.57 9.58h3.76a7.67 7.67 0 0 0 6.93-4.82m-12.73 4.82 3.62-9.64h-2.1l-2.22 5.93-2.29-5.93h-2l-3.57 9.64h2.09l2.3-6.13 2.37 6.13zm-10.18 0 .71-1.89h-5.23l.76-2h4.54l.71-1.89h-4.54l.73-2h5.16l.71-1.88h-7.27l-3.62 9.66zm-5.86-9.64h-2.12l-3.61 9.64h2.12zm-7.25 3.32a2.18 2.18 0 0 1 -2.13 1.36h-2.15l1-2.77h2.11c1 0 1.49.47 1.15 1.38zm.07 6.32-1.06-3.44a5 5 0 0 0 3.19-3c.74-2-.18-3.18-2.45-3.18h-4.36l-3.65 9.62h2.12l1.16-3.09h1.66l.91 3.09zm-6.86-7.71.73-1.93h-7.34l-3.62 9.64h2.12l1.4-3.73h4.6l.72-1.93h-4.6l.77-2.05zm-15.41 7.71.73-1.93h-4.81l2.89-7.71h-2.12l-3.61 9.64zm-10.48-4h-2.56l2.45-3.12zm2.34 4-.49-9.71h-1.95l-7.78 9.71h2.17l1.69-2.16h4.09l.07 2.16zm-11.43 0 3.62-9.64h-2.1l-2.22 5.93-2.29-5.93h-2l-3.57 9.64h2.09l2.3-6.13 2.33 6.13zm-10.6-4.79a4.62 4.62 0 0 1 -4 3c-1.71 0-2.41-1.38-1.79-3a4.62 4.62 0 0 1 4-3c1.71 0 2.4 1.38 1.78 3zm2.23 0c1-2.74-.27-5-3.25-5a8 8 0 0 0 -7 5c-1 2.74.28 4.95 3.26 4.95a8 8 0 0 0 7-5m-10.15-4.82h-2.13l-3.61 9.66h2.12zm-6.33 6.78c.63-1.68-.21-2.38-2-2.89-1.51-.43-1.84-.64-1.61-1.27a1.59 1.59 0 0 1 1.56-.84 3.12 3.12 0 0 1 2.15.95l1.7-1.59a3.92 3.92 0 0 0 -3.12-1.23 4.73 4.73 0 0 0 -4.46 2.91c-.72 1.92.33 2.46 2.08 2.95 1.46.41 1.69.69 1.49 1.23a1.73 1.73 0 0 1 -1.74.91 3 3 0 0 1 -2.43-1.17l-1.82 1.5a4.21 4.21 0 0 0 3.51 1.55 4.8 4.8 0 0 0 4.66-3m-8.4 0c.63-1.68-.21-2.38-2-2.89-1.51-.43-1.84-.64-1.61-1.27a1.59 1.59 0 0 1 1.56-.84 3.12 3.12 0 0 1 2.15.95l1.7-1.59a3.92 3.92 0 0 0 -3.12-1.23 4.75 4.75 0 0 0 -4.47 2.91c-.71 1.92.34 2.46 2.09 2.95 1.46.41 1.69.69 1.49 1.23a1.73 1.73 0 0 1 -1.74.91 3 3 0 0 1 -2.44-1.17l-1.81 1.5a4.21 4.21 0 0 0 3.51 1.55 4.8 4.8 0 0 0 4.66-3m-9.6 2.86.71-1.89h-5.24l.76-2h4.55l.71-1.89h-4.55l.74-2h5.16l.71-1.88h-7.27l-3.62 9.66zm-5.87-7.71.73-1.93h-7.34l-3.62 9.64h2.16l1.4-3.73h4.6l.72-1.93h-4.6l.77-2.05zm-12.26 2.92a4.62 4.62 0 0 1 -4 3c-1.71 0-2.4-1.38-1.78-3a4.62 4.62 0 0 1 4-3c1.7 0 2.4 1.38 1.78 3zm2.23 0c1-2.74-.28-5-3.25-5a8 8 0 0 0 -7 5c-1 2.74.28 4.95 3.25 4.95a8 8 0 0 0 7-5m-13.04-1.51a2.18 2.18 0 0 1 -2.14 1.35h-2.15l1-2.77h2.1c1 0 1.49.47 1.15 1.38zm.07 6.32-1.07-3.44a5 5 0 0 0 3.18-3c.75-2-.17-3.18-2.44-3.18h-4.4l-3.61 9.65h2.12l1.15-3.12h1.66l.91 3.09zm-9.44-6.24a2.33 2.33 0 0 1 -2.22 1.46h-1.69l1.1-2.95h1.64c1.06 0 1.53.51 1.17 1.46zm2.17 0c.74-2-.14-3.33-2.44-3.33h-3.94l-3.62 9.6h2.12l1.08-2.92h1.61a5.41 5.41 0 0 0 5.17-3.39" fill="#0056a2" transform="translate(-56.8 -39.83)"/></g></svg>